<svg id="Runes" xmlns="http://www.w3.org/2000/svg" width="800" height="800" viewBox="0 0 800 800">
  <defs>
    <style>
      .cls-1 {
        fill: none;
        stroke: #000;
        stroke-linecap: round;
        stroke-linejoin: round;
        stroke-width: 20px;
      }
    </style>
  </defs>
  <title>B_Rune</title>
  <g id="B">
    <path class="cls-1" d="M627.53,457.1s6.82-105.64,6.82-173.79l-1.8,76.12c-84.38,2.91-182,9.92-266.25,17C252.51,386,163,395.76,163,395.76l3.4,79.51s-7.95-90.87,0-197.63"/>
    <path class="cls-1" d="M428.76,155s-18.17,63.6-5.68,128.34c0,0,99.95-110.17,153.34-195.36,0,0-229.44,6.82-322.58-8,0,0,40.81,174.92,112.41,296.45L475.37,368s144.87,154.36,0,299.23c-119,119-234.74,22.21-188.66-89.42l-57.86-25.3s137.79,59.25,247.52,112.67c28.68,14,55.44,27.53,77.33,39.53"/>
  </g>
</svg>
