<svg id="Runes" xmlns="http://www.w3.org/2000/svg" width="200" height="200" viewBox="0 0 800 800">
  <defs>
    <style>
      .cls-1 {
        fill: none;
        stroke: #000;
        stroke-linecap: round;
        stroke-linejoin: round;
        stroke-width: 20px;
      }
    </style>
  </defs>
  <title>F_Rune</title>
  <g id="F">
    <path class="cls-1" d="M576.77,487.67s-134.43-152.88,0-342.65c0,0-255.67,350.56-302.24,410.3,0,0,63.26,103.68,118.61,165.18,0,0,108.07-131.79,135.31-163.42,0,0-59.46-70.49-109-100.16l-.88,143.21"/>
    <path class="cls-1" d="M387.28,212.08s2.25,58.53,1.47,91.08c0,0,71.6-80.24,100.6-108.36,0,0-76.88-77-117.3-114.8,0,0-61.5,72.05-148.48,168.69,0,0,87.86,66.78,170.91,145.31"/>
  </g>
</svg>
