<svg id="Runes" xmlns="http://www.w3.org/2000/svg" width="800" height="800" viewBox="0 0 800 800">
  <defs>
    <style>
      .cls-1 {
        fill: none;
        stroke: #000;
        stroke-linecap: round;
        stroke-linejoin: round;
        stroke-width: 20px;
      }
    </style>
  </defs>
  <title>H_Rune</title>
  <g id="H">
    <path class="cls-1" d="M739,224.34c-1.24-6.68-70.88-132.17-70.88-132.17C572,216.09,275.19,542.07,140.9,705c0,0-63.42-62.75-80.83-121.49"/>
    <path class="cls-1" d="M640.77,550.08s-98.24,5.34-135.54,0c0,0-7.46,88.12,7.46,142.85,0,0,159.16,16,226.31,12,0,0-5-223-36.06-321.75,0,0-580.7,30.71-624.22,34.72,0,0,11.19-252.33,8.71-284.37,0,0,69.63,9.35,218.85,18.69,0,0-9.95,76.1-26.12,137.51,0,0-52.22,1.34-95.74-13.35"/>
  </g>
</svg>
