<svg id="Runes" xmlns="http://www.w3.org/2000/svg" width="200" height="200" viewBox="0 0 800 800">
  <defs>
    <style>
      .cls-1 {
        fill: none;
        stroke: #000;
        stroke-linecap: round;
        stroke-linejoin: round;
        stroke-width: 20px;
      }
    </style>
  </defs>
  <title>I_Rune</title>
  <g id="I">
    <path class="cls-1" d="M388.11,79.49c146.7-8.63,236.13,98,276.33,160.77s65.31,221.06,8.79,337.87S507.43,722.57,420.77,721.31,201,700.8,132.47,595C18.37,418.65,170,145.64,300.19,98.33,300.19,98.33,338.29,82.42,388.11,79.49Z"/>
    <path class="cls-1" d="M113.37,328.57c126.12,86.7,176.36,234.07,370.07,388.24"/>
    <path class="cls-1" d="M426.21,348.28a193,193,0,0,0,32.66,25.12s-44.38,52.75-63.64,69.5c0,0-33.49-36.84-74.52-56.1,30.15-41.91,62.43-90.25,91.27-137.33,79.63,62.11,175.61,97.52,176.68,96.72-49.41,33.07-152.47,165.23-247,234.8"/>
  </g>
</svg>
