<svg id="Runes" xmlns="http://www.w3.org/2000/svg" width="800" height="800" viewBox="0 0 800 800">
  <defs>
    <style>
      .cls-1 {
        fill: none;
        stroke: #000;
        stroke-linecap: round;
        stroke-linejoin: round;
        stroke-width: 20px;
      }
    </style>
  </defs>
  <title>J_Rune</title>
  <g id="J">
    <path class="cls-1" d="M178.45,474.11s269.65-21.81,387.84,0c0,0-19.51,189.33-13.77,247.85,0,0-128.51-9.18-206.54,0-5.08-54.73,33.28-135.4,40.16-509.47"/>
    <path class="cls-1" d="M645.08,206.75c-32.89-25.24-82.61-35.19-82.61-35.19,22.18-40.54,22.94-82.62,22.94-82.62,54.32,3.83,142.29,48.2,142.29,48.2C719.28,199.1,649.41,361,649.41,361,380.15,17.29,124.73,376.35,124.52,374.28c0,0-5.74-99.45-53.16-226.43,0,0,62-45.14,149.16-68.85,0,0,.77,45.9,15.3,77.26,0,0-39.77,7.65-62.72,33.66"/>
  </g>
</svg>
