<svg id="Runes" xmlns="http://www.w3.org/2000/svg" width="200" height="200" viewBox="0 0 800 800">
  <defs>
    <style>
      .cls-1 {
        fill: none;
        stroke: #000;
        stroke-linecap: round;
        stroke-linejoin: round;
        stroke-width: 20px;
      }
    </style>
  </defs>
  <title>O_Rune</title>
  <g id="O">
    <path class="cls-1" d="M462.76,628.8s-36.36,31.51-80,92.11c0,0-3.64-185.43,6.06-304.2,0,0-121.2-27.87-121.2,89.69,13.34,76.35,174.53,80,219.37-15.76,40-77.56-35.15-193.91-136.95-192.7-75.14,0-104.23,61.81-104.23,61.81"/>
    <path class="cls-1" d="M365,119.18s-21.78,113.3-87.72,203.29"/>
    <path class="cls-1" d="M394.28,212.5s-.6,39.39,15.15,61.81c0,0,70.3-30.3,144.23-92.72"/>
    <path class="cls-1" d="M310.66,81s106,65.66,173,152.21"/>
  </g>
</svg>
