<svg id="Runes" xmlns="http://www.w3.org/2000/svg" width="800" height="800" viewBox="0 0 800 800">
  <defs>
    <style>
      .cls-1 {
        fill: none;
        stroke: #000;
        stroke-linecap: round;
        stroke-linejoin: round;
        stroke-width: 20px;
      }
    </style>
  </defs>
  <title>R_Rune</title>
  <g id="R">
    <path class="cls-1" d="M613.88,517.13s16.56,17.73,84,59.12"/>
    <path class="cls-1" d="M499.18,699.24s132.44-132,156.68-150"/>
    <path class="cls-1" d="M414,400.06s95.18,205.19,135.68,249.22"/>
    <path class="cls-1" d="M302.88,524.67S198.23,483.42,198.23,393.55c0-77.45,67.24-167.84,191.41-167.85,124.91,0,160.14,121.73,160.11,165.49,0,48.35-32.24,107-79.66,123.64"/>
    <path class="cls-1" d="M374,141.67s19.94,19.52,29.4,30.75c0,0,26.61-26,47.3-35.48,0,0-48.48-36.06-71.54-57.94,0,0-46.12,57.35-65.63,74.5,0,0,48.21,54.93,60.47,72.7"/>
    <path class="cls-1" d="M101.85,608.18s57.35-33.7,85.14-68.59"/>
    <path class="cls-1" d="M298.74,721.11S194.46,613.21,152.59,572.86"/>
    <path class="cls-1" d="M346,400.06s-62.42,203.66-98.32,268.57"/>
  </g>
</svg>
