<svg id="Runes" xmlns="http://www.w3.org/2000/svg" width="800" height="800" viewBox="0 0 800 800">
  <defs>
    <style>
      .cls-1 {
        fill: none;
        stroke: #000;
        stroke-linecap: round;
        stroke-linejoin: round;
        stroke-width: 20px;
      }
    </style>
  </defs>
  <title>S_Rune</title>
  <g id="S">
    <path class="cls-1" d="M374.25,511.66S456.84,450,491.66,409.17"/>
    <path class="cls-1" d="M330.46,368.37s56,79.77,92.2,105.06"/>
    <path class="cls-1" d="M549.38,212.15s-142.17,137.21-185,201"/>
    <path class="cls-1" d="M625,498.72s-128.31-174-150.23-211.89"/>
    <path class="cls-1" d="M386.19,575.34s131.56-98,189.16-144.54"/>
    <path class="cls-1" d="M482.17,503.07c11.41,22.26,22.43,60.33,22.43,60.33C521.51,670.87,418,718.63,351.36,719.62S140.41,688.78,181.21,542.5,396.14,206.18,396.14,206.18,342.41,124.58,322.5,79.8c0,0-69.65,81.6-111.44,118.42,0,0,62.44,80.35,83,133"/>
  </g>
</svg>
