<svg id="Runes" xmlns="http://www.w3.org/2000/svg" width="800" height="800" viewBox="0 0 800 800">
  <defs>
    <style>
      .cls-1 {
        fill: none;
        stroke: #000;
        stroke-linecap: round;
        stroke-linejoin: round;
        stroke-width: 20px;
      }
    </style>
  </defs>
  <title>U_Rune</title>
  <g id="U">
    <path class="cls-1" d="M175.93,79c.61,2.52-19.52,152.5,40.83,202.82C274,329.5,382.09,380.88,485.18,243c20.14-31.43,35.47-49.53,43.5-152.61,0,0-60.91-7.36-137.22.67,0,0-3.44,85.41,64.26,196.79,41.5,68.28,128.9,169.87,170,217.54,0,0-210.18,158-293.85,216.21"/>
    <path class="cls-1" d="M186.64,466.56S308.51,615.61,361.37,700.73"/>
    <path class="cls-1" d="M431,379.54s-102.8,93-191,154"/>
    <path class="cls-1" d="M367.37,578.34s44.18-39.49,87.68-52.88c0,0-62.55-62.61-78.46-98.57"/>
  </g>
</svg>
