<svg id="Runes" xmlns="http://www.w3.org/2000/svg" width="800" height="800" viewBox="0 0 800 800">
  <defs>
    <style>
      .cls-1 {
        fill: none;
        stroke: #000;
        stroke-linecap: round;
        stroke-linejoin: round;
        stroke-width: 20px;
      }
    </style>
  </defs>
  <title>W_Rune</title>
  <g id="W">
    <path class="cls-1" d="M399.51,216.56c-1.64-2.46-17.19-63.05-25.38-79.42"/>
    <path class="cls-1" d="M284.88,201s57.87-27.69,100.17-33.09"/>
    <path class="cls-1" d="M335,332s-13.36-104.72-22.72-142.83"/>
    <path class="cls-1" d="M578,235.39s-159.12-1-250.27,43.71"/>
    <path class="cls-1" d="M507.59,79.82l3.24,158.49S504.31,89.65,367.58,90.47,221.1,204.91,221.1,260.59c0,0-2.53,122.5,123.55,121.36,90.07-.82,149-58.14,149-58.14S364.3,503.12,271.78,616.11c0,0,59,38.48,120.36,103.16,0,0,42.58-74.5,82.7-124.45,0,0-73.56-53.42-107.47-99.58"/>
  </g>
</svg>
