<svg id="Runes" xmlns="http://www.w3.org/2000/svg" width="800" height="800" viewBox="0 0 800 800">
  <defs>
    <style>
      .cls-1 {
        fill: none;
        stroke: #000;
        stroke-linecap: round;
        stroke-linejoin: round;
        stroke-width: 20px;
      }
    </style>
  </defs>
  <title>X_Rune</title>
  <g id="X">
    <line class="cls-1" x1="332.5" y1="608.08" x2="327.72" y2="484.7"/>
    <path class="cls-1" d="M348.28,471s-102.54,68-159.73,107.47c0,0,67.7,80.52,146.58,139.35,0,0,96.95-83.48,162-162.36-94-105.11-110.43-182.73-236.63-301,0,0,106.48-4.6,163,0-28.92,48.64-126.86,109.77-145.92,155.79,0,0-125.55-17.09-118.65-152.17S316.23,67.28,410.88,86,558.51,241.08,492.23,325.1c-13.36,16.94-38,48.07-47.33,63.43,0,0,112.4.66,197.19-1.8"/>
  </g>
</svg>
