<svg id="Runes" xmlns="http://www.w3.org/2000/svg" width="200" height="200" viewBox="0 0 800 800">
  <defs>
    <style>
      .cls-1 {
        fill: none;
        stroke: #000;
        stroke-linecap: round;
        stroke-linejoin: round;
        stroke-width: 20px;
      }
    </style>
  </defs>
  <title>Z_Rune</title>
  <g id="Z">
    <path class="cls-1" d="M300.06,474.59s10.67,2.67,42.66,0c0,0-41.77,41.77-81.76,77.32,0,0-11.55-41.77,0-112,0,0,183.08-11.55,283.5-44.43,0,0-80,96.87-265.73,211.51,0,0,157.31-16,230.18-16,0,0-93.31,107.53-117.31,129.75,0,0,7.11-335.94,12.44-431,0,0-72.87-63.1-91.54-85.32,0,0,72.88-73.76,102.21-124.42,0,0,48.88,74.65,91.54,117.31,0,0-70.43,55.77-101.43,91.87"/>
  </g>
</svg>
